<svg width="14" height="13" viewBox="0 0 14 13" fill="none" xmlns="http://www.w3.org/2000/svg">
<path fill-rule="evenodd" clip-rule="evenodd" d="M7.56241 2.5434C7.1643 3.19501 7.0299 3.95939 7.0299 4.3222C7.0299 4.56123 6.91421 4.7847 6.72107 4.91871C6.52793 5.05272 6.28251 5.07981 6.06596 4.99104C5.92433 4.93298 5.76653 4.87395 5.59591 4.81013C5.15389 4.64478 4.62579 4.44723 4.06975 4.1509C3.50505 3.84996 2.8897 3.44123 2.1927 2.83435C2.20135 3.10527 2.25974 3.35339 2.35787 3.58333C2.58692 4.12013 3.07262 4.65085 3.8769 5.14512C4.09695 5.28036 4.22761 5.52772 4.2178 5.79048C4.20799 6.05324 4.05925 6.28965 3.82976 6.40724L3.82899 6.40764L3.82815 6.40806L3.82628 6.40902L3.82173 6.41131L3.80946 6.41736C3.79989 6.42204 3.78752 6.42795 3.77246 6.43493C3.74233 6.44887 3.70134 6.46707 3.65016 6.48805C3.54793 6.52996 3.4044 6.58322 3.22527 6.63567C3.0369 6.69083 2.80753 6.74557 2.5442 6.78501C2.69446 7.33184 3.02935 7.67317 3.39022 7.93101C3.60243 8.08262 3.80773 8.19422 4.01407 8.30638C4.06539 8.33427 4.11678 8.3622 4.16835 8.3908C4.28103 8.45327 4.42918 8.5377 4.55169 8.63814C4.64624 8.71565 4.92121 8.95632 4.92121 9.36476C4.92121 9.62591 4.80564 9.82943 4.73248 9.9382C4.6469 10.0655 4.53887 10.1803 4.42578 10.2807C4.19761 10.4832 3.89131 10.6779 3.52817 10.8373C3.11003 11.0209 2.59956 11.1653 2.01604 11.2173C2.06384 11.2436 2.11464 11.2687 2.16854 11.2926C2.68015 11.5198 3.42837 11.6128 4.32972 11.5288C6.11678 11.3623 8.23683 10.5266 9.69398 9.21632C10.811 7.89407 11.2841 6.58577 11.481 5.61616C11.5806 5.12568 11.6096 4.72083 11.6144 4.44447C11.6168 4.30642 11.6132 4.20093 11.6093 4.13344C11.6074 4.09971 11.6054 4.07554 11.6042 4.06161L11.6029 4.04852C11.5822 3.87252 11.6255 3.69445 11.7247 3.54913L11.6031 4.05012L11.6032 4.05136L11.7247 3.54913L13.0177 4.15996C13.007 4.17671 13.0274 4.14496 13.0177 4.15996C13.0177 4.15996 13.0221 4.35002 13.02 4.47006C13.0139 4.82402 12.9771 5.31963 12.8573 5.9097C12.6171 7.09276 12.0433 8.6516 10.723 10.1991C10.7036 10.2219 10.6828 10.2434 10.6607 10.2635C8.95382 11.8175 6.52275 12.7712 4.45698 12.9636C3.42513 13.0598 2.41598 12.9727 1.60961 12.6146C0.774621 12.2438 0.130603 11.5609 0.00543421 10.5347C-0.0220951 10.309 0.0560112 10.0832 0.216121 9.92565C0.37623 9.76812 0.599531 9.69735 0.81846 9.73474C1.73289 9.89094 2.4759 9.73196 2.97457 9.51301C3.02429 9.49118 3.11497 9.44669 3.11497 9.44669C3.11497 9.44669 2.76743 9.24232 2.58626 9.11288C1.84455 8.58295 1.05527 7.68726 1.05527 6.12311C1.05527 5.72526 1.36997 5.40275 1.75817 5.40275C1.80928 5.40275 1.85941 5.40175 1.90849 5.39988C1.5504 5.02849 1.26447 4.6167 1.06985 4.1606C0.675286 3.23595 0.695907 2.22274 1.10555 1.17319C1.1933 0.948364 1.38539 0.78376 1.61684 0.735073C1.84829 0.686386 2.08812 0.760129 2.2552 0.931352C3.26547 1.96674 4.05775 2.52063 4.71832 2.87266C5.09781 3.0749 5.42324 3.20817 5.74873 3.3319C5.86156 2.84098 6.05873 2.28978 6.37093 1.77879C6.94759 0.834957 7.94263 0 9.49005 0C10.4499 0 11.0676 0.484791 11.4565 0.817049C11.5034 0.857088 11.544 0.89211 11.5797 0.922878C11.6696 1.00035 11.7283 1.05085 11.776 1.08657C12.0956 0.931354 12.3841 0.822599 12.6406 0.772494C12.9134 0.719233 13.3064 0.702901 13.63 0.96844C13.9705 1.24784 14.01 1.64974 13.9983 1.88778C13.986 2.13689 13.9137 2.38636 13.8376 2.59422C13.6821 3.01883 13.4348 3.47017 13.242 3.79561C13.1576 3.93816 13.0796 4.06319 13.0177 4.15996C13.03 4.31722 13.0164 4.14512 13.0177 4.15996L11.7247 3.54913L11.7255 3.54795L11.7296 3.54198L11.7471 3.51585C11.7627 3.49237 11.7859 3.45723 11.8148 3.41251C11.8727 3.32284 11.9527 3.19581 12.0404 3.04786C12.1649 2.83762 12.2949 2.60161 12.3992 2.37835C12.3569 2.39865 12.312 2.42088 12.2646 2.44519C12.2551 2.45007 12.2455 2.45473 12.2357 2.45916C11.8057 2.65511 11.4182 2.54025 11.1462 2.38238C10.9583 2.27338 10.7666 2.10642 10.6282 1.9859C10.6023 1.96331 10.5782 1.94235 10.5564 1.92371C10.2272 1.64254 9.93596 1.44073 9.49005 1.44073C8.52585 1.44073 7.93936 1.92645 7.56241 2.5434Z" fill="#AFAFAF"/>
</svg>
